<svg xmlns="http://www.w3.org/2000/svg" xmlns:xlink="http://www.w3.org/1999/xlink" viewBox="0 0 300.91 234.75"><defs><style>.cls-1,.cls-7{fill:none;}.cls-2{fill:url(#linear-gradient);}.cls-3{clip-path:url(#clip-path);}.cls-4{fill:#524797;}.cls-5{clip-path:url(#clip-path-2);}.cls-6{clip-path:url(#clip-path-3);}.cls-7{stroke:#7778bc;stroke-miterlimit:10;}</style><linearGradient id="linear-gradient" x1="32.09" y1="185.13" x2="283.94" y2="12.1" gradientUnits="userSpaceOnUse"><stop offset="0" stop-color="#d6bde0"/><stop offset="1" stop-color="#7677bc"/></linearGradient><clipPath id="clip-path"><rect class="cls-1" x="241.17" y="24.97" width="17.11" height="17.11"/></clipPath><clipPath id="clip-path-2"><rect class="cls-1" x="47.69" y="54.56" width="26" height="26"/></clipPath><clipPath id="clip-path-3"><rect class="cls-1" x="112.87" y="208.75" width="26" height="26"/></clipPath></defs><g id="Layer_2" data-name="Layer 2"><g id="blob_3"><path class="cls-2" d="M60.06,112c9.55-12-.46-27.77.29-46.52C61.27,42.65,78,21.52,95.31,11c23.09-14.11,54.61-14.5,74-1.65,24.5,16.23,35,35.13,35,35.13a21.11,21.11,0,0,0,6.82,8c9.05,6,19.56,1,30.22,0,17.36-1.69,37.76,6.89,48.89,21.34,11.36,14.75,14.07,36.94,5.92,53.33-10.65,21.42-39.56,32.35-51,32.59a19.09,19.09,0,0,0-10.67,3c-4.62,3.13-6.09,7.74-7.4,10.67-6,13.43-21.46,19.73-27.56,22.22-4.16,1.7-2.27.27-28.74,4.15-16.18,2.38-22.92,3.8-29.93,8.59-5.36,3.67-6.82,6.54-10.37,10.08-12.07,12-33,16.63-50.66,13.63a63.44,63.44,0,0,1-48-39.41c-6.93-17.84-6.7-41.72,4.44-54.81,1.84-2.17,8.12-9.49,15.11-16.89C58.16,113.79,58.67,113.73,60.06,112Z"/><g id="star_2"><g class="cls-3"><polygon class="cls-4" points="248.92 24.97 248.92 32.67 241.17 32.67 241.17 34.42 248.92 34.42 248.92 42.08 250.72 42.08 250.72 34.38 258.28 34.42 258.28 32.48 250.72 32.43 250.72 24.97 248.92 24.97"/></g></g><g id="star_2-2" data-name="star_2"><g class="cls-5"><polygon class="cls-4" points="59.46 54.56 59.46 66.26 47.69 66.26 47.69 68.93 59.46 68.93 59.46 80.56 62.2 80.56 62.2 68.86 73.69 68.93 73.69 65.97 62.2 65.89 62.2 54.56 59.46 54.56"/></g></g><g id="star_2-3" data-name="star_2"><g class="cls-6"><polygon class="cls-4" points="124.65 208.75 124.65 220.45 112.87 220.45 112.87 223.12 124.65 223.12 124.65 234.75 127.39 234.75 127.39 223.05 138.87 223.12 138.87 220.16 127.39 220.08 127.39 208.75 124.65 208.75"/></g></g><path class="cls-7" d="M.5,109.38c0-6.52.81-36.39,24.37-57.78,24.3-22.07,61.31-24.68,78.94-15a86,86,0,0,0,19.43,7.89c7.51,2,14.93,3.94,22,.88,5.86-2.54,6.36-6.26,11.47-11,9.09-8.36,23-10.62,34.08-9.18,14.65,1.9,29.2,13.25,33.77,27,2.31,6.92,4.34,21.22.89,33.48A21.79,21.79,0,0,0,224.57,96c1.29,7,6.34,11.48,8.3,13.34,0,0,12.78,12.11,17.48,33.77,3.7,17-4.72,35.51-15.7,47.11-1.18,1.25-18.58,19.07-44.45,18.37-17.76-.47-31.17-9.45-34.66-11.85-13.75-9.44-14.31-17.67-24.89-19.85-8.69-1.78-12.23,3-28.45,6.82-1.19.28-16.69,3.88-30.81,3a77.32,77.32,0,0,1-54.22-28.45C.84,137.87.5,115.47.5,109.38Z"/></g></g></svg>