<svg xmlns="http://www.w3.org/2000/svg" xmlns:xlink="http://www.w3.org/1999/xlink" viewBox="0 0 327.22 229.59"><defs><style>.cls-1,.cls-3{fill:none;}.cls-2{fill:url(#linear-gradient);}.cls-3{stroke:#7778bc;stroke-miterlimit:10;}.cls-4{clip-path:url(#clip-path);}.cls-5{fill:#524797;}.cls-6{clip-path:url(#clip-path-2);}.cls-7{clip-path:url(#clip-path-3);}</style><linearGradient id="linear-gradient" x1="50.62" y1="108.29" x2="327.22" y2="108.29" gradientUnits="userSpaceOnUse"><stop offset="0" stop-color="#7677bc"/><stop offset="1" stop-color="#d6bde0"/></linearGradient><clipPath id="clip-path"><rect class="cls-1" x="99.06" y="23.92" width="26" height="26"/></clipPath><clipPath id="clip-path-2"><rect class="cls-1" x="248.69" y="44.36" width="26" height="26"/></clipPath><clipPath id="clip-path-3"><rect class="cls-1" x="113.57" y="203.59" width="26" height="26"/></clipPath></defs><g id="Layer_2" data-name="Layer 2"><g id="FAQ_title"><path class="cls-2" d="M163.94,0c24.94.12,41.2,19.07,43.26,21.55,12.7,15.26,9.19,27.72,21.34,34.07,9.24,4.83,15.84,0,28.15,0,23.93,0,48.53,18.3,60.74,40.3,14.44,26,13.12,60.09-5.34,85-15.12,20.45-38.85,30.83-59.26,31.41-18.93.54-35.55-6.52-35.55-6.52-15.35-6.52-19.52-14.09-30.22-13.33-9.42.66-11.31,6.88-24.89,14.22-4.93,2.66-19.9,10.75-37.34,9.78-17.91-1-39.1-11.59-47.11-29-6.26-13.63.69-20.22-7.4-36.15-7-13.73-13.91-12.29-17.78-23.11-5.48-15.27,1.08-38.37,15.7-48.89C81.4,69.87,96.33,74,104.55,60.61c1.35-2.22,1.06-2.52,3.39-8.84,5-13.6,10.09-27.31,18.67-36.45C140.82.2,162.44,0,163.94,0Z"/><path class="cls-3" d="M.51,165.84c.42-17.31,9.85-31.43,18.55-38.81a74.94,74.94,0,0,0,7.4-6.22,69.71,69.71,0,0,0,9.19-11.56c6.72-11,1.4-28.27,2.37-42.67,1.81-26.82,25.4-44.9,27.55-46.52C81.39,8.21,107.45.17,127.8,8.81c10.14,4.3,20.25,13.34,39.39,18.52a30.5,30.5,0,0,0,13.05,1c10.44-1.61,16.15-8.76,21-12.91,16.66-14.24,44.88-11.53,61.07-6,4.82,1.63,22.75,8,35,26.07,16.43,24.36,15.08,59-2.08,81.48-12.25,16-36.13,30.4-57.77,28.45-6.78-.61-14.88-3-24.3,1.18-7.91,3.49-9.62,8.41-17.48,16.3-4.29,4.3-16.67,16.72-34.08,21-4,1-21.84,5.41-39.11,0-2.65-.84-5.94-2.1-10.07-1.19-7.87,1.74-10.86,9.65-16,16.3-10.22,13.22-25.75,17.34-29.63,18.37-14,3.7-33.17,1.8-48-11C16.91,204.85-.06,189.74.51,165.84Z"/><g id="star_2"><g class="cls-4"><polygon class="cls-5" points="110.83 23.92 110.83 35.62 99.06 35.62 99.06 38.29 110.83 38.29 110.83 49.92 113.57 49.92 113.57 38.21 125.06 38.29 125.06 35.33 113.57 35.25 113.57 23.92 110.83 23.92"/></g></g><g id="star_2-2" data-name="star_2"><g class="cls-6"><polygon class="cls-5" points="260.46 44.36 260.46 56.06 248.69 56.06 248.69 58.73 260.46 58.73 260.46 70.36 263.2 70.36 263.2 58.66 274.69 58.73 274.69 55.77 263.2 55.7 263.2 44.36 260.46 44.36"/></g></g><g id="star_2-3" data-name="star_2"><g class="cls-7"><polygon class="cls-5" points="125.35 203.59 125.35 215.29 113.58 215.29 113.58 217.96 125.35 217.96 125.35 229.59 128.09 229.59 128.09 217.89 139.57 217.96 139.57 215 128.09 214.92 128.09 203.59 125.35 203.59"/></g></g></g></g></svg>