<svg xmlns="http://www.w3.org/2000/svg" xmlns:xlink="http://www.w3.org/1999/xlink" viewBox="0 0 301.18 221.53"><defs><style>.cls-1,.cls-6{fill:none;}.cls-2{clip-path:url(#clip-path);}.cls-3{clip-path:url(#clip-path-2);}.cls-4{fill:url(#linear-gradient);}.cls-5{clip-path:url(#clip-path-3);}.cls-6{stroke:#524797;stroke-miterlimit:10;}.cls-7{clip-path:url(#clip-path-5);}.cls-8{fill:#524797;}.cls-9{clip-path:url(#clip-path-6);}</style><clipPath id="clip-path" transform="translate(0.58)"><rect class="cls-1" width="257.27" height="189.59"/></clipPath><clipPath id="clip-path-2" transform="translate(0.58)"><path class="cls-1" d="M187.24,0C169.05.12,164,18.35,138.75,22.26,123.61,24.6,114,19.81,104.35,15c-8.17-4-16.41-8.1-28.1-7.83C44.3,7.94.58,40.59,0,87.14c-.59,48,45.05,81.75,77.4,82.08,10.83.11,18.45-3.54,25.78-7.19,8.85-4.41,17.29-8.82,30.46-6.58,27.1,4.59,29,29.63,53.1,33.62,30.11,5,70.38-26.9,70.52-54v-.49c-.3-22.63-28.72-31.65-28.22-62.5.2-12.9,5.22-14.37,3.92-26.09C230.62,24.81,211.21,2.19,190.3.14c-.93-.09-1.82-.13-2.69-.14Z"/></clipPath><linearGradient id="linear-gradient" x1="-685.31" y1="647.77" x2="-684.31" y2="647.77" gradientTransform="matrix(255.97, 0, 0, -255.97, 175415.47, 165905.97)" gradientUnits="userSpaceOnUse"><stop offset="0" stop-color="#7576bb"/><stop offset="0.42" stop-color="#a096cc"/><stop offset="1" stop-color="#d7bfe1"/></linearGradient><clipPath id="clip-path-3" transform="translate(0.58)"><rect class="cls-1" x="46.11" y="34.08" width="254.48" height="187.44"/></clipPath><clipPath id="clip-path-5" transform="translate(0.58)"><rect class="cls-1" x="209.67" y="171.67" width="26" height="26"/></clipPath><clipPath id="clip-path-6" transform="translate(0.58)"><rect class="cls-1" x="20.78" y="9.56" width="26" height="26"/></clipPath></defs><g id="Layer_2" data-name="Layer 2"><g id="Layer_1-2" data-name="Layer 1"><g id="gradient_blob_1"><g class="cls-2"><g class="cls-3"><rect class="cls-4" width="257.85" height="194.04"/></g></g></g><g id="blob_outline_1"><g class="cls-5"><g class="cls-5"><path class="cls-6" d="M46.67,94.18C47.94,68.59,70,47,92.6,38.77c28.21-10.24,60.31-.62,76.74,17.19,12.33,13.38,10.12,25.2,23.11,30.81,13.59,5.88,21.52-4.68,44.2-2.52,5.1.49,22.06,2.68,37.28,14.67,2.33,1.84,25.45,20.66,26.15,50.37.93,39.43-38.23,70.88-66.74,71.11-20,.17-33.49-6.22-33.49-6.22-10.31-4.9-16-11.16-23.74-9.11-5.51,1.46-5.49,5.4-13.89,10.3-3.38,2-10.37,6-18.66,5.63-11.85-.61-21.4-10.13-25.78-18.67-4.69-9.16-1.27-13-4.74-21.63-5.31-13.28-18.1-16.33-29.93-24C64.59,144.69,45.42,119.4,46.67,94.18Z" transform="translate(0.58)"/></g></g></g><g id="star_2"><g class="cls-7"><polygon class="cls-8" points="222.03 171.67 222.03 183.37 210.25 183.37 210.25 186.04 222.03 186.04 222.03 197.67 224.77 197.67 224.77 185.96 236.25 186.04 236.25 183.07 224.77 183 224.77 171.67 222.03 171.67"/></g></g><g id="star_2-2" data-name="star_2"><g class="cls-9"><polygon class="cls-8" points="33.14 9.55 33.14 21.26 21.36 21.26 21.36 23.93 33.14 23.93 33.14 35.55 35.88 35.55 35.88 23.85 47.36 23.93 47.36 20.96 35.88 20.89 35.88 9.55 33.14 9.55"/></g></g></g></g></svg>