<svg xmlns="http://www.w3.org/2000/svg" viewBox="0 0 565.52 319.23"><defs><style>.cls-1{fill:#7576bb;}.cls-2{fill:#d7bfe1;}.cls-3{fill:#524797;}.cls-4,.cls-5{fill:none;stroke-miterlimit:10;}.cls-4{stroke:#353365;}.cls-5{stroke:#312e5f;}</style></defs><g id="Layer_2" data-name="Layer 2"><g id="Layer_1-2" data-name="Layer 1"><path class="cls-1" d="M45.51,289.48a53.52,53.52,0,0,0,19.56,9.33c2.3.48,13.16,2.53,27.55-2.66,275.8-99.52,269-195.16,269-195.16-2.08-29.2-21-48.86-25-52.84C281.45-6.66,156.83,32.69,86,83.26c-40.89,29.18-53.82,54.91-56.88,61.33C.14,205.18,24.85,273.53,45.51,289.48Z"/><path class="cls-2" d="M436.33,184.74c-10.54,5.56-21.69,17.88-21.49,32.44.29,20.57,23,32.5,28.3,35.26,31.19,16.36,77.13,6.3,87.41-17a32.57,32.57,0,0,0,.59-23.41C527,200.62,517,195.27,507.73,190.37c-16.89-9-32.68-9.45-43-9.63C451.81,180.51,444.57,180.38,436.33,184.74Z"/><path class="cls-2" d="M555.62,285a32.48,32.48,0,0,0-13.33,6.73c-3.64,3.06-5.89,5-5.45,6.77.64,2.61,6.55,4,11.11,2.84,2.36-.59,4.2-2.14,7.89-5.22,4.21-3.52,5.15-5.51,5.5-7.17.16-.77.55-2.61-.44-3.67C560.17,284.53,558.8,284.3,555.62,285Z"/><path class="cls-2" d="M508.18,304.48c.24-1.49,2.71-2.4,4.5-2.45,2.73-.06,5.9,1.83,5.94,4.23a3.84,3.84,0,0,1-2.28,3.33C513,311.06,507.78,306.87,508.18,304.48Z"/><path class="cls-2" d="M398.51,225.65c-2.88.6-5.78,3.72-5.61,7,.13,2.57,2.18,5.46,4.11,5.88a2.83,2.83,0,0,1,1.5.67c.67.64.58,1.41.83,2.11.58,1.6,2.79,2.57,4.23,2.61,2.89.09,5.5-3.51,5.94-6.55C410.35,231.56,403.77,224.54,398.51,225.65Z"/><path class="cls-2" d="M371,52.22c-5.51,1.23-11.16,6.15-11,10.74.09,3.15,2.89,6,5.93,9.19,2.59,2.67,3.51,2.71,5.63,5.33,2.77,3.42,2.25,4.65,4.3,7.18.71.88,5.17,6.17,11.77,5.63a12.55,12.55,0,0,0,10.23-7c1.91-4.14.63-8.23-.23-10.81C394,61.75,382,49.75,371,52.22Z"/><path class="cls-2" d="M.16,124c-2.36-37.78,22.21-76.7,52-97.17C112.82-14.83,212.94,7.74,261.73,48.09c9,7.45,25.79,23.37,54.45,37.39A226.9,226.9,0,0,0,376.62,105c4.24,1,10.55,2.28,16.89,7.12,12,9.13,14.9,23.78,16,29.33,5.62,28.24-16.32,72.7-47.11,104.89-10,10.45-53.6,53.75-120.89,60-5.28.49-12.41.47-26.67.44-94.7-.2-123.08-18.87-132.44-25.78a120.7,120.7,0,0,1-11.56-9.77C51.06,252.71,39,231.5,16.18,170.37,5.67,142.27.42,128.22.16,124Z"/><path class="cls-3" d="M38.92.37a11.19,11.19,0,0,0-7.85,9.41c-.66,7.15,7.18,12.77,13.55,13.11,1,.05,5.5.29,8.22-2.89,3.52-4.11,1-10.35.67-11.11C51.4,3.88,45.32-1.46,38.92.37Z"/><path class="cls-4" d="M45.51,8.15c-19.52,12-23,37.24-24.77,50.23C18,78.67,21.38,95.25,25.07,113c2.8,13.53,4.06,14.71,6.66,25.34,10.06,41.14,4.36,94.6-6.22,120.44A41.35,41.35,0,0,0,22,277.92C22.8,290.17,29.64,299,31.29,301c19.8,24.35,64.17,17.18,74.66,15.12,5.85-1.15,4-1.24,16.45-4.45,37.57-9.68,59.29-15.28,84-11.11,10.47,1.77,17.55,4.63,36.89,7.11,8.68,1.12,14.31,1.94,20.89,1.78,2.95-.07,26.3-.87,44.44-12,26.25-16.11,33.16-48.69,38.67-74.67,3.12-14.72.34-18.51,4.07-42.84,3.43-22.41,7.48-34.89,9.71-41.16,3.69-10.42,5.54-15.63,8-20,4.42-7.87,9.93-14.53,11.55-26.22.14-1,.21-1.74.28-2.47.43-4.76,1.83-20-5.71-34.11a50.29,50.29,0,0,0-15.84-17.46c-16.86-12-36.06-11.4-55.62-10.85-23.4.66-46.82,1.05-70.22,1.78-61.91,1.92-92.86,2.88-118.67-10.22C100.56,12,78.36-3,55.56,3.71A42,42,0,0,0,45.51,8.15Z"/><path class="cls-1" d="M422.53,236.64c-5.92,6.41-15.32,16.58-14.06,29.14,1.14,11.28,10.31,18.7,15.06,22.43,31.67,24.88,81,9.17,102.13,2.45a56.55,56.55,0,0,0,17.92-9,57.61,57.61,0,0,0,19-26.52c3-8.58,3-15,3-27.11,0-15.42-2.93-19.35-4.44-21-4-4.43-9.39-5.47-13.34-6.22-13.11-2.51-24.42,2.57-30.37,5.33-13.6,6.32-13.51,11.35-25.63,14.82A64.79,64.79,0,0,1,472.47,223c-13.65-.16-15.31-3.48-23.4-2.67C436.46,221.57,427.81,230.93,422.53,236.64Z"/><path class="cls-5" d="M396.62,252.74c-1.78-6.75.95-12.67,3.11-17.19,3-6.36,7.6-12.2,15.11-18.37a93.06,93.06,0,0,1,44.3-19.7c7.42-1.06,17.71-2.53,30.07.89,11.06,3.06,9.07,6,35.37,20.52,8.84,4.89,15.52,8.14,24,15.48,5.57,4.8,8.36,7.2,10.82,11.26,9,14.92,2.59,33.31,1.18,37.33s-7.24,19.07-23.11,28.3c-4.11,2.39-12.72,7.25-24.15,6.81-12.62-.48-21.68-7.15-31.07-14.07-10.87-8-8.58-9.58-17.37-15.71-10.71-7.46-21.83-10.5-38.08-15-9.28-2.54-17-4-24-10.81C398.26,258.07,397,254.3,396.62,252.74Z"/></g></g></svg>