<svg xmlns="http://www.w3.org/2000/svg" viewBox="0 0 186.1 151.91"><defs><style>.cls-1{fill:none;}.cls-2{fill:#00165b;}.cls-3{fill:#ff3c00;}.cls-4{fill:#00c89b;}.cls-5{fill:#1203e0;}.cls-6{fill:#020126;}.cls-7{fill:#f29f05;}.cls-8{fill:#180db2;}.cls-9{fill:#f26739;}.cls-10{fill:#f9d564;}.cls-11{fill:#524797;}.cls-12{fill:#d7bfe1;}.cls-13{fill:#080821;}</style></defs><g id="Layer_2" data-name="Layer 2"><g id="Layer_1-2" data-name="Layer 1"><rect class="cls-1" y="0.01" width="186.1" height="151.9"/><path class="cls-2" d="M186.1,59.71c0-13.3-9.1-18.8-26.1-20.7a79.83,79.83,0,0,0-17-17.8l-.6-.3c-18.7-14.3-40-17.1-54.4-17A78.6,78.6,0,0,1,108.3,15l.6.3a77.63,77.63,0,0,1,8,7.2,68.37,68.37,0,0,1,10.2,6.6l.6.3q3,2.4,5.7,4.8c9.9,2.1,16,6.4,17.9,14,8.6,1.7,14.3,4.8,17.3,10.1C180,57.11,186.1,59.71,186.1,59.71Z"/><path class="cls-2" d="M124.1,123a72,72,0,0,1-19.1,17.8c9.8-4.3,24.8-12.5,34.6-26,15.8-25-2-36.7-3.4-37.5a126.06,126.06,0,0,0-15.4,8.2C120.7,85.51,140.5,97.11,124.1,123Z"/><path class="cls-3" d="M60.9,64.11S52,63,39.7,69.21c6.4.7,16,1.8,21.4,3.7-2.8,3.6-5.9,12.3-5.9,12.3a53.61,53.61,0,0,1,10-4.7C64,71.21,61.9,64.71,60.9,64.11Z"/><path class="cls-3" d="M24.9,33.71c-5.7,1.8-9.5,3.3-9.5,3.3,5.3,1.6,10.2,3.2,14.6,4.8,1.5-.6,2.9-1.1,4.4-1.6A57,57,0,0,0,24.9,33.71Z"/><path class="cls-3" d="M32.4,67.11s1.6.1,4.1.3c.6-1.2,1.2-3,2-4.7A45.1,45.1,0,0,0,32.4,67.11Z"/><path class="cls-3" d="M168.9,62.11c-2.8-5.3-8.7-8.4-17.1-10.1a20.24,20.24,0,0,1,.7,5.5s-19.9-8.3-53.2,12.3l-.9.6a15.58,15.58,0,0,1,2,1.6c4.2,3.6,12.5,13.4,4.4,30.4a60.23,60.23,0,0,1-3,5.6A72.74,72.74,0,0,1,89,121.21c-1.4,11.1-5,22.3-12.6,30.7a105,105,0,0,0,25-12.1c-3.2,1.5-3,1.5,0,0A76.13,76.13,0,0,0,120.7,122c16.4-25.9-3.5-37.6-3.5-37.6a97.76,97.76,0,0,1,15.3-8.2h0c24.4-10.6,38.7-4.5,38.7-4.5A19.17,19.17,0,0,0,168.9,62.11Z"/><path class="cls-3" d="M132,35.41a65.74,65.74,0,0,0-5.7-4.8l-.6-.3a89,89,0,0,0-10.2-6.6,82.82,82.82,0,0,1,8.9,10.7A63.14,63.14,0,0,1,132,35.41Z"/><path class="cls-4" d="M56,53.91c-.8.6-1.6,1.1-2.5,1.7l3.2-1.1Z"/><path class="cls-4" d="M41.1,67.21,38.5,67"/><path class="cls-5" d="M96.3,68.21c33.3-20.7,53.3-12.4,53.3-12.4,0-11.1-7.1-18.7-26.1-20.5a85.42,85.42,0,0,0-9-10.9,77.63,77.63,0,0,0-8-7.2l-.6-.3A78.6,78.6,0,0,0,85.6,5.81h-.4a98.94,98.94,0,0,0-50.6-4.3c7.5,2.5,12.2,13,12.2,13-20-2.3-46.8,8.6-46.8,8.6,11.6,3.4,21.1,7,28.3,10.9a62.27,62.27,0,0,1,9.6,6.5c-1.5.5-2.9,1-4.4,1.6h0a69.9,69.9,0,0,0-17.8,10.6s19.3,1.1,28,4.3a36.54,36.54,0,0,0-3.2,5.4c-.8,1.8-1.6,3.5-2,4.7l-.8,2c1.1-.7,3.4-1.8,3.4-1.8,12.3-6.2,21.1-5.1,21.1-5.1.9.6,3,7.1,4.4,16.3.8,4.8,2.4,41.9-12.1,57.5A99.22,99.22,0,0,0,86,119.41c.1,0,10.9-10,12.8-13.2a60.23,60.23,0,0,0,3-5.6c8.1-17-.2-26.8-4.4-30.4-.7-.6-1.4-1.1-2-1.6C95.7,68.51,96,68.31,96.3,68.21Z"/><path class="cls-6" d="M175.4,62c-.1-13.2-9.3-18.7-26.5-20.3A85.33,85.33,0,0,0,135,26.81v.1C102.3-.39,60.2,9.71,60.2,9.71c7.5,2.4,12.3,12.8,12.3,12.8-20-1.9-46.7,9.2-46.7,9.2,17.8,5,31,10.4,38.4,16.8h-.6C46.3,50,41.4,60.71,41.4,60.71s19.3.9,28,3.9c-2.8,3.5-5.7,12.3-5.7,12.3,13.9-8.6,24.3-7.2,24.3-7.2C82.8,67,66.7,72,66.7,72c2.3-6.5,4.1-7.3,4.1-7.3-7.2-4.2-24.4-7.2-24.4-7.2s5.1-7.1,17.2-8.2a22.6,22.6,0,0,1,2.6-.1c-13.3-12.3-30.1-17.6-30.1-17.6C62.8,20.51,76.6,25,76.6,25c-2.5-9.6-6.6-13.3-6.6-13.3,32-2.8,51.9,4.7,64.8,15.7A65.68,65.68,0,0,1,149,44.71c24.9-.6,22.7,13.9,22.7,13.9-30.6.2-54.3,17.9-54.3,17.9s21.7,8.6,3.7,35.1c-13.6,20-39,31.6-39.8,32,.9-.3,28.9-8.9,44-30.4,16.1-26.2-3.9-37.6-3.9-37.6C155.2,53.81,175.4,62,175.4,62Z"/><path class="cls-7" d="M186.1,59.71c0-13.3-9.1-18.8-26.1-20.7a79.83,79.83,0,0,0-17-17.8l-.6-.3c-18.7-14.3-40-17.1-54.4-17A78.6,78.6,0,0,1,108.3,15l.6.3a77.63,77.63,0,0,1,8,7.2,68.37,68.37,0,0,1,10.2,6.6l.6.3q3,2.4,5.7,4.8c9.9,2.1,16,6.4,17.9,14,8.6,1.7,14.3,4.8,17.3,10.1C180,57.11,186.1,59.71,186.1,59.71Z"/><path class="cls-7" d="M124.1,123a72,72,0,0,1-19.1,17.8c9.8-4.3,24.8-12.5,34.6-26,15.8-25-2-36.7-3.4-37.5a126.06,126.06,0,0,0-15.4,8.2C120.7,85.51,140.5,97.11,124.1,123Z"/><path class="cls-8" d="M60.9,64.11S52,63,39.7,69.21c6.4.7,16,1.8,21.4,3.7-2.8,3.6-5.9,12.3-5.9,12.3a53.61,53.61,0,0,1,10-4.7C64,71.21,61.9,64.71,60.9,64.11Z"/><path class="cls-8" d="M24.9,33.71c-5.7,1.8-9.5,3.3-9.5,3.3,5.3,1.6,10.2,3.2,14.6,4.8,1.5-.6,2.9-1.1,4.4-1.6A57,57,0,0,0,24.9,33.71Z"/><path class="cls-8" d="M32.4,67.11s1.6.1,4.1.3c.6-1.2,1.2-3,2-4.7A45.1,45.1,0,0,0,32.4,67.11Z"/><path class="cls-8" d="M168.9,62.11c-2.8-5.3-8.7-8.4-17.1-10.1a20.24,20.24,0,0,1,.7,5.5s-19.9-8.3-53.2,12.3l-.9.6a15.58,15.58,0,0,1,2,1.6c4.2,3.6,12.5,13.4,4.4,30.4a60.23,60.23,0,0,1-3,5.6A72.74,72.74,0,0,1,89,121.21c-1.4,11.1-5,22.3-12.6,30.7a105,105,0,0,0,25-12.1c-3.2,1.5-3,1.5,0,0A76.13,76.13,0,0,0,120.7,122c16.4-25.9-3.5-37.6-3.5-37.6a97.76,97.76,0,0,1,15.3-8.2h0c24.4-10.6,38.7-4.5,38.7-4.5A19.17,19.17,0,0,0,168.9,62.11Z"/><path class="cls-8" d="M132,35.41a65.74,65.74,0,0,0-5.7-4.8l-.6-.3a89,89,0,0,0-10.2-6.6,82.82,82.82,0,0,1,8.9,10.7A63.14,63.14,0,0,1,132,35.41Z"/><path class="cls-4" d="M56,53.91c-.8.6-1.6,1.1-2.5,1.7l3.2-1.1Z"/><path class="cls-4" d="M41.1,67.21,38.5,67"/><path class="cls-9" d="M96.3,68.21c33.3-20.7,53.3-12.4,53.3-12.4,0-11.1-7.1-18.7-26.1-20.5a85.42,85.42,0,0,0-9-10.9,77.63,77.63,0,0,0-8-7.2l-.6-.3A78.6,78.6,0,0,0,85.6,5.81h-.4a98.94,98.94,0,0,0-50.6-4.3c7.5,2.5,12.2,13,12.2,13-20-2.3-46.8,8.6-46.8,8.6,11.6,3.4,21.1,7,28.3,10.9a62.27,62.27,0,0,1,9.6,6.5c-1.5.5-2.9,1-4.4,1.6h0a69.9,69.9,0,0,0-17.8,10.6s19.3,1.1,28,4.3a36.54,36.54,0,0,0-3.2,5.4c-.8,1.8-1.6,3.5-2,4.7l-.8,2c1.1-.7,3.4-1.8,3.4-1.8,12.3-6.2,21.1-5.1,21.1-5.1.9.6,3,7.1,4.4,16.3.8,4.8,2.4,41.9-12.1,57.5A99.22,99.22,0,0,0,86,119.41c.1,0,10.9-10,12.8-13.2a60.23,60.23,0,0,0,3-5.6c8.1-17-.2-26.8-4.4-30.4-.7-.6-1.4-1.1-2-1.6C95.7,68.51,96,68.31,96.3,68.21Z"/><path class="cls-6" d="M175.4,62c-.1-13.2-9.3-18.7-26.5-20.3A85.33,85.33,0,0,0,135,26.81v.1C102.3-.39,60.2,9.71,60.2,9.71c7.5,2.4,12.3,12.8,12.3,12.8-20-1.9-46.7,9.2-46.7,9.2,17.8,5,31,10.4,38.4,16.8h-.6C46.3,50,41.4,60.71,41.4,60.71s19.3.9,28,3.9c-2.8,3.5-5.7,12.3-5.7,12.3,13.9-8.6,24.3-7.2,24.3-7.2C82.8,67,66.7,72,66.7,72c2.3-6.5,4.1-7.3,4.1-7.3-7.2-4.2-24.4-7.2-24.4-7.2s5.1-7.1,17.2-8.2a22.6,22.6,0,0,1,2.6-.1c-13.3-12.3-30.1-17.6-30.1-17.6C62.8,20.51,76.6,25,76.6,25c-2.5-9.6-6.6-13.3-6.6-13.3,32-2.8,51.9,4.7,64.8,15.7A65.68,65.68,0,0,1,149,44.71c24.9-.6,22.7,13.9,22.7,13.9-30.6.2-54.3,17.9-54.3,17.9s21.7,8.6,3.7,35.1c-13.6,20-39,31.6-39.8,32,.9-.3,28.9-8.9,44-30.4,16.1-26.2-3.9-37.6-3.9-37.6C155.2,53.81,175.4,62,175.4,62Z"/></g><g id="Themed_Colors" data-name="Themed Colors"><rect class="cls-1" y="0.01" width="186.1" height="151.9"/><path class="cls-2" d="M186.1,59.71c0-13.3-9.1-18.8-26.1-20.7a79.83,79.83,0,0,0-17-17.8l-.6-.3c-18.7-14.3-40-17.1-54.4-17A78.6,78.6,0,0,1,108.3,15l.6.3a77.63,77.63,0,0,1,8,7.2,68.37,68.37,0,0,1,10.2,6.6l.6.3q3,2.4,5.7,4.8c9.9,2.1,16,6.4,17.9,14,8.6,1.7,14.3,4.8,17.3,10.1C180,57.11,186.1,59.71,186.1,59.71Z"/><path class="cls-2" d="M124.1,123a72,72,0,0,1-19.1,17.8c9.8-4.3,24.8-12.5,34.6-26,15.8-25-2-36.7-3.4-37.5a126.06,126.06,0,0,0-15.4,8.2C120.7,85.51,140.5,97.11,124.1,123Z"/><path class="cls-3" d="M60.9,64.11S52,63,39.7,69.21c6.4.7,16,1.8,21.4,3.7-2.8,3.6-5.9,12.3-5.9,12.3a53.61,53.61,0,0,1,10-4.7C64,71.21,61.9,64.71,60.9,64.11Z"/><path class="cls-3" d="M24.9,33.71c-5.7,1.8-9.5,3.3-9.5,3.3,5.3,1.6,10.2,3.2,14.6,4.8,1.5-.6,2.9-1.1,4.4-1.6A57,57,0,0,0,24.9,33.71Z"/><path class="cls-3" d="M32.4,67.11s1.6.1,4.1.3c.6-1.2,1.2-3,2-4.7A45.1,45.1,0,0,0,32.4,67.11Z"/><path class="cls-3" d="M168.9,62.11c-2.8-5.3-8.7-8.4-17.1-10.1a20.24,20.24,0,0,1,.7,5.5s-19.9-8.3-53.2,12.3l-.9.6a15.58,15.58,0,0,1,2,1.6c4.2,3.6,12.5,13.4,4.4,30.4a60.23,60.23,0,0,1-3,5.6A72.74,72.74,0,0,1,89,121.21c-1.4,11.1-5,22.3-12.6,30.7a105,105,0,0,0,25-12.1c-3.2,1.5-3,1.5,0,0A76.13,76.13,0,0,0,120.7,122c16.4-25.9-3.5-37.6-3.5-37.6a97.76,97.76,0,0,1,15.3-8.2h0c24.4-10.6,38.7-4.5,38.7-4.5A19.17,19.17,0,0,0,168.9,62.11Z"/><path class="cls-3" d="M132,35.41a65.74,65.74,0,0,0-5.7-4.8l-.6-.3a89,89,0,0,0-10.2-6.6,82.82,82.82,0,0,1,8.9,10.7A63.14,63.14,0,0,1,132,35.41Z"/><path class="cls-4" d="M56,53.91c-.8.6-1.6,1.1-2.5,1.7l3.2-1.1Z"/><path class="cls-4" d="M41.1,67.21,38.5,67"/><path class="cls-5" d="M96.3,68.21c33.3-20.7,53.3-12.4,53.3-12.4,0-11.1-7.1-18.7-26.1-20.5a85.42,85.42,0,0,0-9-10.9,77.63,77.63,0,0,0-8-7.2l-.6-.3A78.6,78.6,0,0,0,85.6,5.81h-.4a98.94,98.94,0,0,0-50.6-4.3c7.5,2.5,12.2,13,12.2,13-20-2.3-46.8,8.6-46.8,8.6,11.6,3.4,21.1,7,28.3,10.9a62.27,62.27,0,0,1,9.6,6.5c-1.5.5-2.9,1-4.4,1.6h0a69.9,69.9,0,0,0-17.8,10.6s19.3,1.1,28,4.3a36.54,36.54,0,0,0-3.2,5.4c-.8,1.8-1.6,3.5-2,4.7l-.8,2c1.1-.7,3.4-1.8,3.4-1.8,12.3-6.2,21.1-5.1,21.1-5.1.9.6,3,7.1,4.4,16.3.8,4.8,2.4,41.9-12.1,57.5A99.22,99.22,0,0,0,86,119.41c.1,0,10.9-10,12.8-13.2a60.23,60.23,0,0,0,3-5.6c8.1-17-.2-26.8-4.4-30.4-.7-.6-1.4-1.1-2-1.6C95.7,68.51,96,68.31,96.3,68.21Z"/><path class="cls-6" d="M175.4,62c-.1-13.2-9.3-18.7-26.5-20.3A85.33,85.33,0,0,0,135,26.81v.1C102.3-.39,60.2,9.71,60.2,9.71c7.5,2.4,12.3,12.8,12.3,12.8-20-1.9-46.7,9.2-46.7,9.2,17.8,5,31,10.4,38.4,16.8h-.6C46.3,50,41.4,60.71,41.4,60.71s19.3.9,28,3.9c-2.8,3.5-5.7,12.3-5.7,12.3,13.9-8.6,24.3-7.2,24.3-7.2C82.8,67,66.7,72,66.7,72c2.3-6.5,4.1-7.3,4.1-7.3-7.2-4.2-24.4-7.2-24.4-7.2s5.1-7.1,17.2-8.2a22.6,22.6,0,0,1,2.6-.1c-13.3-12.3-30.1-17.6-30.1-17.6C62.8,20.51,76.6,25,76.6,25c-2.5-9.6-6.6-13.3-6.6-13.3,32-2.8,51.9,4.7,64.8,15.7A65.68,65.68,0,0,1,149,44.71c24.9-.6,22.7,13.9,22.7,13.9-30.6.2-54.3,17.9-54.3,17.9s21.7,8.6,3.7,35.1c-13.6,20-39,31.6-39.8,32,.9-.3,28.9-8.9,44-30.4,16.1-26.2-3.9-37.6-3.9-37.6C155.2,53.81,175.4,62,175.4,62Z"/><path class="cls-10" d="M186.1,59.71c0-13.3-9.1-18.8-26.1-20.7a79.83,79.83,0,0,0-17-17.8l-.6-.3c-18.7-14.3-40-17.1-54.4-17A78.6,78.6,0,0,1,108.3,15l.6.3a77.63,77.63,0,0,1,8,7.2,68.37,68.37,0,0,1,10.2,6.6l.6.3q3,2.4,5.7,4.8c9.9,2.1,16,6.4,17.9,14,8.6,1.7,14.3,4.8,17.3,10.1C180,57.11,186.1,59.71,186.1,59.71Z"/><path class="cls-10" d="M124.1,123a72,72,0,0,1-19.1,17.8c9.8-4.3,24.8-12.5,34.6-26,15.8-25-2-36.7-3.4-37.5a126.06,126.06,0,0,0-15.4,8.2C120.7,85.51,140.5,97.11,124.1,123Z"/><path class="cls-11" d="M60.9,64.11S52,63,39.7,69.21c6.4.7,16,1.8,21.4,3.7-2.8,3.6-5.9,12.3-5.9,12.3a53.61,53.61,0,0,1,10-4.7C64,71.21,61.9,64.71,60.9,64.11Z"/><path class="cls-11" d="M24.9,33.71c-5.7,1.8-9.5,3.3-9.5,3.3,5.3,1.6,10.2,3.2,14.6,4.8,1.5-.6,2.9-1.1,4.4-1.6A57,57,0,0,0,24.9,33.71Z"/><path class="cls-11" d="M32.4,67.11s1.6.1,4.1.3c.6-1.2,1.2-3,2-4.7A45.1,45.1,0,0,0,32.4,67.11Z"/><path class="cls-11" d="M168.9,62.11c-2.8-5.3-8.7-8.4-17.1-10.1a20.24,20.24,0,0,1,.7,5.5s-19.9-8.3-53.2,12.3l-.9.6a15.58,15.58,0,0,1,2,1.6c4.2,3.6,12.5,13.4,4.4,30.4a60.23,60.23,0,0,1-3,5.6A72.74,72.74,0,0,1,89,121.21c-1.4,11.1-5,22.3-12.6,30.7a105,105,0,0,0,25-12.1c-3.2,1.5-3,1.5,0,0A76.13,76.13,0,0,0,120.7,122c16.4-25.9-3.5-37.6-3.5-37.6a97.76,97.76,0,0,1,15.3-8.2h0c24.4-10.6,38.7-4.5,38.7-4.5A19.17,19.17,0,0,0,168.9,62.11Z"/><path class="cls-11" d="M132,35.41a65.74,65.74,0,0,0-5.7-4.8l-.6-.3a89,89,0,0,0-10.2-6.6,82.82,82.82,0,0,1,8.9,10.7A63.14,63.14,0,0,1,132,35.41Z"/><path class="cls-4" d="M56,53.91c-.8.6-1.6,1.1-2.5,1.7l3.2-1.1Z"/><path class="cls-4" d="M41.1,67.21,38.5,67"/><path class="cls-12" d="M96.3,68.21c33.3-20.7,53.3-12.4,53.3-12.4,0-11.1-7.1-18.7-26.1-20.5a85.42,85.42,0,0,0-9-10.9,77.63,77.63,0,0,0-8-7.2l-.6-.3A78.6,78.6,0,0,0,85.6,5.81h-.4a98.94,98.94,0,0,0-50.6-4.3c7.5,2.5,12.2,13,12.2,13-20-2.3-46.8,8.6-46.8,8.6,11.6,3.4,21.1,7,28.3,10.9a62.27,62.27,0,0,1,9.6,6.5c-1.5.5-2.9,1-4.4,1.6h0a69.9,69.9,0,0,0-17.8,10.6s19.3,1.1,28,4.3a36.54,36.54,0,0,0-3.2,5.4c-.8,1.8-1.6,3.5-2,4.7l-.8,2c1.1-.7,3.4-1.8,3.4-1.8,12.3-6.2,21.1-5.1,21.1-5.1.9.6,3,7.1,4.4,16.3.8,4.8,2.4,41.9-12.1,57.5A99.22,99.22,0,0,0,86,119.41c.1,0,10.9-10,12.8-13.2a60.23,60.23,0,0,0,3-5.6c8.1-17-.2-26.8-4.4-30.4-.7-.6-1.4-1.1-2-1.6C95.7,68.51,96,68.31,96.3,68.21Z"/><path class="cls-13" d="M175.4,62c-.1-13.2-9.3-18.7-26.5-20.3A85.33,85.33,0,0,0,135,26.81v.1C102.3-.39,60.2,9.71,60.2,9.71c7.5,2.4,12.3,12.8,12.3,12.8-20-1.9-46.7,9.2-46.7,9.2,17.8,5,31,10.4,38.4,16.8h-.6C46.3,50,41.4,60.71,41.4,60.71s19.3.9,28,3.9c-2.8,3.5-5.7,12.3-5.7,12.3,13.9-8.6,24.3-7.2,24.3-7.2C82.8,67,66.7,72,66.7,72c2.3-6.5,4.1-7.3,4.1-7.3-7.2-4.2-24.4-7.2-24.4-7.2s5.1-7.1,17.2-8.2a22.6,22.6,0,0,1,2.6-.1c-13.3-12.3-30.1-17.6-30.1-17.6C62.8,20.51,76.6,25,76.6,25c-2.5-9.6-6.6-13.3-6.6-13.3,32-2.8,51.9,4.7,64.8,15.7A65.68,65.68,0,0,1,149,44.71c24.9-.6,22.7,13.9,22.7,13.9-30.6.2-54.3,17.9-54.3,17.9s21.7,8.6,3.7,35.1c-13.6,20-39,31.6-39.8,32,.9-.3,28.9-8.9,44-30.4,16.1-26.2-3.9-37.6-3.9-37.6C155.2,53.81,175.4,62,175.4,62Z"/></g></g></svg>